<svg viewBox="0 0 100 100" fill="none" xmlns="http://www.w3.org/2000/svg">
  <defs>
    <linearGradient id="logo-gradient" x1="0%" y1="0%" x2="100%" y2="100%">
      <stop offset="0%" stopColor="#FF4E00" />
      <stop offset="100%" stopColor="#EC4899" />
    </linearGradient>
    <filter id="logo-glow" x="-20%" y="-20%" width="140%" height="140%">
      <feGaussianBlur stdDeviation="3" result="blur" />
      <feComposite in="SourceGraphic" in2="blur" operator="over" />
    </filter>
  </defs>
  
  <path 
    d="M50 5 L85 25 V55 C85 75 70 90 50 95 C30 90 15 75 15 55 V25 L50 5Z" 
    fill="url(#logo-gradient)"
    filter="url(#logo-glow)"
  />
  
  <path 
    d="M30 40 C30 35 40 32 50 32 C60 32 70 35 70 40 C70 55 60 65 50 65 C40 65 30 55 30 40Z" 
    fill="white" 
    fillOpacity="0.95"
  />
  
  <path 
    d="M38 42 H46" 
    stroke="#141414" 
    strokeWidth="2.5" 
    strokeLinecap="round" 
  />
  <path 
    d="M54 42 H62" 
    stroke="#141414" 
    strokeWidth="2.5" 
    strokeLinecap="round" 
  />
  
  <path 
    d="M40 75 Q50 82 60 75" 
    stroke="white" 
    strokeWidth="2" 
    strokeLinecap="round" 
    opacity="0.6"
  />
  <path 
    d="M35 82 Q50 90 65 82" 
    stroke="white" 
    strokeWidth="1.5" 
    strokeLinecap="round" 
    opacity="0.4"
  />
</svg>
